<?xml version="1.0" encoding="UTF-8" standalone="no"?>
<svg
   xmlns:dc="http://purl.org/dc/elements/1.1/"
   xmlns:cc="http://creativecommons.org/ns#"
   xmlns:rdf="http://www.w3.org/1999/02/22-rdf-syntax-ns#"
   xmlns:svg="http://www.w3.org/2000/svg"
   xmlns="http://www.w3.org/2000/svg"
   width="35mm"
   height="12mm"
   viewBox="0 0 35 12"
   version="1.1"
   id="svg2724">
  <defs
     id="defs2718" />
  <metadata
     id="metadata2721">
    <rdf:RDF>
      <cc:Work
         rdf:about="">
        <dc:format>image/svg+xml</dc:format>
        <dc:type
           rdf:resource="http://purl.org/dc/dcmitype/StillImage" />
        <dc:title></dc:title>
      </cc:Work>
    </rdf:RDF>
  </metadata>
  <g
     id="layer1"
     transform="translate(-45.351865,-23.876825)">
    <g
       aria-label=".ELE"
       id="text2728"
       style="font-style:normal;font-weight:normal;font-size:14.8167px;line-height:1.25;font-family:sans-serif;fill:#000000;fill-opacity:1;stroke:none;stroke-width:0.264583"
       transform="translate(0.12215877,0.37684407)">
      <path
         d="m 45.351865,34.470768 q 0,-0.414868 0.281517,-0.696385 0.281518,-0.281517 0.681569,-0.281517 0.414867,0 0.696384,0.281517 0.281518,0.281517 0.281518,0.696385 0,0.400051 -0.281518,0.681568 -0.281517,0.281517 -0.696384,0.281517 -0.400051,0 -0.681569,-0.281517 -0.281517,-0.281517 -0.281517,-0.681568 z"
         style="font-style:normal;font-variant:normal;font-weight:normal;font-stretch:normal;font-family:'Libre Baskerville';-inkscape-font-specification:'Libre Baskerville';stroke-width:0.264583"
         id="path2730" />
      <path
         d="m 52.147174,29.018222 q 0.800102,0 1.333503,-0.0889 0.548218,-0.103717 0.859369,-0.31115 0.325967,-0.207434 0.459317,-0.533402 0.148167,-0.325967 0.148167,-0.770468 h 0.518585 v 4.044959 H 54.94753 q 0,-0.444501 -0.13335,-0.770468 -0.118534,-0.325968 -0.444501,-0.533402 -0.311151,-0.22225 -0.859369,-0.325967 -0.533401,-0.118534 -1.363136,-0.118534 v 3.348575 q 0,0.488951 0.118534,0.814918 0.118533,0.311151 0.40005,0.518585 0.296334,0.192617 0.770469,0.281517 0.474134,0.07408 1.170519,0.07408 0.785285,0 1.333503,-0.103717 0.548218,-0.118533 0.918636,-0.385234 0.370417,-0.2667 0.592668,-0.696385 0.22225,-0.444501 0.370417,-1.096435 h 0.563035 l -0.222251,2.918889 h -9.201171 v -0.563034 q 0.518585,-0.01482 0.829736,-0.0889 0.325967,-0.07408 0.503767,-0.251884 0.177801,-0.177801 0.237068,-0.503768 0.05927,-0.325967 0.05927,-0.844552 v -6.904582 q 0,-0.518585 -0.05927,-0.829735 -0.04445,-0.325968 -0.207434,-0.503768 -0.148167,-0.192617 -0.444501,-0.251884 -0.296334,-0.07408 -0.770469,-0.103717 v -0.563034 h 8.564053 l 0.13335,2.607739 h -0.518584 q -0.0889,-0.592668 -0.296334,-0.963086 -0.192617,-0.385234 -0.548218,-0.607484 -0.340784,-0.222251 -0.874185,-0.311151 -0.533402,-0.0889 -1.289053,-0.0889 h -1.881721 q -0.251884,0 -0.251884,0.251884 z"
         style="font-style:normal;font-variant:normal;font-weight:normal;font-stretch:normal;font-family:'Libre Baskerville';-inkscape-font-specification:'Libre Baskerville';stroke-width:0.264583"
         id="path2732" />
      <path
         d="m 69.298431,35.285686 h -9.571588 v -0.563034 q 0.518584,-0.01482 0.829735,-0.0889 0.325967,-0.07408 0.503768,-0.251884 0.1778,-0.177801 0.237067,-0.503768 0.05927,-0.325967 0.05927,-0.844552 v -6.904582 q 0,-0.518585 -0.05927,-0.829735 -0.04445,-0.325968 -0.207434,-0.503768 -0.148167,-0.192617 -0.444501,-0.251884 -0.296334,-0.07408 -0.770468,-0.103717 v -0.563034 h 4.504276 v 0.563034 q -0.474134,0.01482 -0.770468,0.0889 -0.281517,0.07408 -0.444501,0.266701 -0.148167,0.192617 -0.207434,0.533401 -0.04445,0.340784 -0.04445,0.903819 v 6.385997 q 0,0.622302 0.118534,1.022353 0.13335,0.385234 0.429684,0.607484 0.311151,0.207434 0.814918,0.296334 0.503768,0.07408 1.274237,0.07408 0.844552,0 1.422403,-0.0889 0.577851,-0.103717 0.963085,-0.340784 0.400051,-0.251884 0.622302,-0.681569 0.237067,-0.444501 0.400051,-1.140885 h 0.563034 z"
         style="font-style:normal;font-variant:normal;font-weight:normal;font-stretch:normal;font-family:'Libre Baskerville';-inkscape-font-specification:'Libre Baskerville';stroke-width:0.264583"
         id="path2734" />
      <path
         d="m 73.677692,29.018222 q 0.800102,0 1.333503,-0.0889 0.548218,-0.103717 0.859368,-0.31115 0.325968,-0.207434 0.459318,-0.533402 0.148167,-0.325967 0.148167,-0.770468 h 0.518585 v 4.044959 h -0.518585 q 0,-0.444501 -0.13335,-0.770468 -0.118534,-0.325968 -0.444501,-0.533402 -0.311151,-0.22225 -0.859369,-0.325967 -0.533401,-0.118534 -1.363136,-0.118534 v 3.348575 q 0,0.488951 0.118533,0.814918 0.118534,0.311151 0.400051,0.518585 0.296334,0.192617 0.770469,0.281517 0.474134,0.07408 1.170519,0.07408 0.785285,0 1.333503,-0.103717 0.548218,-0.118533 0.918635,-0.385234 0.370418,-0.2667 0.592668,-0.696385 0.222251,-0.444501 0.370418,-1.096435 h 0.563034 l -0.22225,2.918889 h -9.201171 v -0.563034 q 0.518585,-0.01482 0.829736,-0.0889 0.325967,-0.07408 0.503767,-0.251884 0.177801,-0.177801 0.237068,-0.503768 0.05927,-0.325967 0.05927,-0.844552 v -6.904582 q 0,-0.518585 -0.05927,-0.829735 -0.04445,-0.325968 -0.207434,-0.503768 -0.148167,-0.192617 -0.444501,-0.251884 -0.296334,-0.07408 -0.770469,-0.103717 v -0.563034 h 8.564053 l 0.13335,2.607739 h -0.518584 q -0.0889,-0.592668 -0.296334,-0.963086 -0.192617,-0.385234 -0.548218,-0.607484 -0.340784,-0.222251 -0.874186,-0.311151 -0.533401,-0.0889 -1.289052,-0.0889 h -1.881721 q -0.251884,0 -0.251884,0.251884 z"
         style="font-style:normal;font-variant:normal;font-weight:normal;font-stretch:normal;font-family:'Libre Baskerville';-inkscape-font-specification:'Libre Baskerville';stroke-width:0.264583"
         id="path2736" />
    </g>
  </g>
</svg>
